<svg width="63" height="21" xmlns="http://www.w3.org/2000/svg">
  <path d="M38.8107316 10.2244995c0 .4841002-.0545014.9553766-.1431996 1.4138291-.6614968 3.3705345-3.6323547 5.92248-7.1931095 5.92248-3.5575489 0-6.5294754-2.5519455-7.1909722-5.92248-.0897669-.4584525-.1431996-.9297289-.1431996-1.4138291 0-.48410022.0534327-.9553766.1431996-1.41382913.6614968-3.36946578 3.6334233-5.92247998 7.1909722-5.92247998 3.5607548 0 6.5316127 2.5530142 7.1931095 5.92247998.0886982.45845253.1431996.92972891.1431996 1.41382913zm2.6844586-1.41382913C40.7973592 3.87990122 36.5922061.0616008 31.4744225.0616008c-5.1188523 0-9.3218681 3.81830042-10.0175618 8.74906957H.71535693v2.82765823H21.4568607c.6956937 4.9307692 4.8987095 8.7501383 10.0175618 8.7501383 5.1177836 0 9.3229367-3.8193691 10.0207677-8.7501383H62.236694V8.81067037H41.4951902z" fill="#EE4523" fill-rule="nonzero"/>
</svg>