
<svg width="104" height="104" xmlns="http://www.w3.org/2000/svg" xmlns:xlink="http://www.w3.org/1999/xlink">
  <defs>
    <path id="a" d="M.38778295.26564341H103.82062V103.694812H.38778295z"/>
  </defs>
  <g fill="none" fill-rule="evenodd">
    <g>
      <mask id="b" fill="#fff">
        <use xlink:href="#a"/>
      </mask>
      <path d="M18.0053023 17.8907814C27.1073178 8.78070388 39.2168682 3.76330853 52.1027907 3.76330853c12.8859225 0 24.995876 5.01739535 34.0986977 14.12747287 9.1064496 9.1133023 14.1210236 21.2413953 14.1210236 34.1502946 0 26.5530542-21.6311942 48.156031-48.2197213 48.156031-26.5873178 0-48.21689923-21.6029768-48.21689923-48.156031 0-12.9093024 5.01417055-25.0369923 14.11941083-34.1502946m34.0974884 85.8040306c28.5169612 0 51.7178293-23.1718446 51.7178293-51.653736 0-13.8424807-5.3785735-26.8485272-15.1453022-36.6225117C78.9122171 5.64699845 65.9235039.2656031 52.1027907.2656031c-13.8207132 0-26.8090233 5.38139535-36.572124 15.1529612C5.76595349 25.1921457.38778295 38.1981922.38778295 52.041076c0 28.4818914 23.19965895 51.653736 51.71500775 51.653736" fill="#000" mask="url(#b)"/>
    </g>
    <path d="M37.1941039 71.1006632l12.0898744-22.6717601.1101556-.2073966V35.2582229h-1.8437841v-2.3588861h10.7891449v2.3588861h-1.8433776v3.5009657h-4.126158v1.8993368h4.126158v1.8254094h-4.126158v1.8993368h4.126158v3.6328364l12.309779 23.0845552H37.1941039zm10.2680402-23.3458988L34 73h38L58.4277004 47.5485666V37.1575597h1.8433776V31H45.61836v6.1575597h1.8437841v10.5972047zM14.5474919 32.5997193c.079913.037859.1462958.0876518.1970342.1473208.0515841.060492.0900607.1288027.1137387.2036976.0236779.0748949.0325571.1551394.0249464.2399106-.0076108.0847711-.0321344.1687192-.0731479.2493753l-1.0858024 2.1493188-1.0354867-.4954586 1.1213192-2.2184525c.0803359-.1600775.1860409-.2604861.3230347-.3073983.1357253-.0473237.2714506-.0370359.4143638.0316863zm-.367008 3.2081351l1.110326-2.1974655c.101054-.2004056.2325511-.3341465.390263-.3966961.1560207-.062138.3150011-.0530848.4858205.0288058.1695509.0810675.2684908.1921753.3031621.3403191.0355169.1506128-.0021141.3366155-.1116246.5518354l-1.1048292 2.1871778-1.0731178-.5139765zm2.6371298-1.4596274c.0849869-.1683077.141222-.3333234.1665912-.4896974.0253692-.1592545.0202954-.3090443-.0160672-.4456657-.0363625-.1366215-.1006312-.2613091-.1902691-.3699479-.0896379-.1086387-.209296-.199171-.355169-.2687163-.204645-.0979394-.406753-.1304488-.6008275-.0958819-.1598261.0283942-.3243031.1028776-.4904715.2218041-.0152215-.1674847-.0583492-.3111018-.129383-.4283823-.0892151-.1464977-.2287457-.2662472-.4147866-.3551335-.2828668-.1357984-.5585456-.1526703-.8194256-.0522618-.2591888.0995855-.4739815.315217-.6384586.6403102L12 35.3354404 15.4776964 37l1.3399173-2.651773zM19.3060511 28.731586l-.9552667 1.4723551-.8046616-1.6866272 1.7599283.2142721zm-.3177051 2.8180601l-.4138054-.8815765 1.2170327-1.8764109.9133124.1117276L21 28.4484408 17.2940385 28 17 28.4522671 18.696459 32l.291887-.4503539zM21.7480106 25.9576677c.1355375.0283547.2734811.0423323.4126276.0423323.2490202 0 .5032533-.0451278.7590904-.1345847.4511235-.1585464.8681621-.4408948 1.2394869-.8402561.3308239-.3566295.5666111-.720847.7005446-1.0830676.1355376-.3646168.1728305-.7248407.1118787-1.0714862l-.011228-.066294-.4779904.1210065.006416.0539138c.0352879.3043132-.007218.601438-.1259136.883387-.1198986.2855433-.3195959.5794731-.593077.8738024-.2089203.2248403-.4338806.4017574-.6696678.5267574-.2341832.1242014-.4731784.1996806-.7089656.223243-.2349852.0231629-.4691684-.0027956-.6961337-.0786742-.2257622-.0754793-.4398955-.205671-.6355828-.3861823-.4038057-.3718053-.5870621-.8386586-.5449572-1.3869816.0180449-.2260384.0806007-.4556711.1860634-.6837064.1062646-.2296327.2534311-.4456871.4362865-.6421729.2574412-.277556.5289172-.48762.8052053-.625799.2758871-.1369809.5822501-.2096646.910668-.2152557l.0413028-.0007987.1748354-.4500801-.0818037-.0075879c-.3857607-.0351438-.7723234.0307508-1.1472571.1948883-.3733298.1629394-.7290156.4249203-1.0574335.778355-.2361882.2547925-.4226526.5291537-.5537791.8166937-.1319286.2887382-.2073163.5846649-.2241583.8785947-.0405008.6797129.1944844 1.2595854.6981387 1.7240425.3147839.2903356.6664597.477636 1.0454035.5559108M27.5133829 21.6993514l-.6613383-.8321252.2933086-1.30599 2.3799256.4265547.0256506.0045784L30 19.616177l-2.7498141-.5051507L27.7349442 17l-.5490706.4601297-.6765799 2.9763449-1.1505576-1.4463945L25 19.2911103 27.1550186 22zM31.8888622 18L35 16.1100672l-.2474177-.4175103-2.6835616 1.6299506-.6249499-1.0520774 1.7843702-1.0836641-.2478181-.4179153-1.7839698 1.0836641-.5212588-.8771362 2.5650573-1.5574633L32.9930339 13 30 14.8182554l1.8572344 3.1278854zM36.7217399 14.4271019l-1.041399-2.2988857 1.741775-.5772741c.2037613-.0674641.4122116-.0991905.596364-.0999198.1896941.001094.3691574.0335497.5324222.0951791.1632648.0623587.3116098.1542558.4407722.2745972.1304414.1207061.2365848.2709505.3158726.4467219.0528586.1159654.0873872.2366715.1023069.3577422.0149198.1199768.007673.2421415-.0213139.3643063-.0383651.1794181-.132999.3460728-.281344.4955878-.1491976.1498798-.3346288.2621985-.5524573.3344033l-1.8329987.6075418zm1.9954109-.1910876c.2578987-.0856976.4838264-.2023923.6709628-.347896.1875627-.1455038.3363339-.3194518.4411985-.5163741.1091274-.1987457.166675-.4098902.1705115-.6265047.0034103-.2166146-.0426279-.4332291-.1385406-.6443736-.1091273-.2406828-.2549147-.4467219-.4339518-.6133766-.1803159-.1673839-.3879136-.2928307-.6181042-.3741524-.2297642-.0809569-.4804161-.1188827-.7613338-.1126833-.2732447.0058348-.5635406.0594414-.8632145.1586319L35 11.8838867 36.4118353 15l2.3053155-.7639857zM46.7529819 11.4640102l-.1048783-1.1421737 2.186565-.24223c.1994164-.0219103.3615347.0150126.4819231.1103628.1203885.0953502.1861221.2296519.2027402.4110202.016618.180151-.0217881.3189159-.1185421.4244098-.0986004.1071168-.257395.1736591-.4719523.1971923l-2.1758556.2414186zm2.3405588-2.87105529c.0982311.08601805.1532553.20165552.1672883.35381009.0077551.08480081.0003693.16432693-.0214188.23776687-.0217881.07303419-.0565014.1399822-.1026626.1988153-.0457919.05842736-.1034011.10711682-.1709812.14485115-.0672107.03814008-.1429151.06207906-.2234203.07100547l-2.1385573.23695538-.1015547-1.10119333 2.2076145-.24466455c.1595332-.01744706.2839839.01582408.3836921.10265362zm-.1148491 3.11490829c.1672883-.0186643.3186971-.0592388.4494257-.1201006.1329443-.0624849.2448391-.1448512.3319915-.2458818.0871524-.1006249.1525167-.2178854.1938772-.3473182.0413604-.1302443.0546548-.2746897.0406218-.4300902-.0199416-.2174796-.0893681-.3988479-.2049558-.5392358-.0952768-.114826-.2282211-.20936471-.3958787-.28280465.1211271-.09981339.2104952-.21058192.2666273-.32946536.0705343-.14931435.0971232-.32500215.079028-.52300597-.0273275-.30025168-.1418073-.53355535-.3393774-.69463632-.1953543-.15864649-.45755-.22153705-.7825251-.1854257L46 8.30000665 46.3397466 12l2.638945-.2921368zM53.5689622 11.9700801L54.0409789 12l.0800608-1.5372946L56 8.25747998l-.5945741-.03834808-1.5021817 1.72271386L52.606716 8.0619469l-.0163157-.02402022L52 8l1.649023 2.4323641zM62.6599508 13.8358379c.3376789.1093099.6374327.1641621.8978029.1641621.1542529 0 .2950132-.0193364.420093-.0576146.3457015-.1069421.5721579-.3437143.6713465-.7040026.0539703-.1953371.0623575-.36897.0247971-.5173472-.037925-.1483773-.1203391-.2849159-.2443249-.4052751-.1210684-.1160184-.2848026-.2269067-.4875558-.3291133-.1998359-.1002336-.4412435-.2028349-.7172942-.3038577-.2071292-.0749778-.3876379-.1483772-.5375148-.2186196-.1473243-.068664-.2669341-.1396956-.3551828-.2119111-.0835081-.0682694-.1393017-.1408795-.1659222-.2166466-.0262558-.0733994-.0262558-.1586374 0-.2537409.045583-.1653459.1640989-.2624225.3613821-.2963598.2100465-.0363051.5014131.0055247.8664418.1239108.2425016.078924.465676.1795522.6633239.2995168.1961893.1199646.3828973.2714988.554654.4502618l.0339138.0351212L65 11.1208502l-.0415717-.050906c-.3303856-.4044858-.8124715-.7118951-1.4338591-.9131514-.5010484-.16218898-.9149421-.19888867-1.2311058-.1085206-.3263743.093525-.5378795.3070146-.6286808.6353387-.0506883.1819199-.054335.3445035-.01094.4830152.0426657.1381172.1290911.2643957.2567235.375284.1228918.1069421.2880846.2087541.4908379.3026737.1994712.0923412.4405141.1906017.7154708.2908352.2053059.0785295.3847206.1542966.5331389.2261175.1440423.0690585.2614641.1440364.3478895.2205927.0827787.0733994.137843.1527181.1644635.2363776.0266204.082081.0244325.1791576-.0058347.2888621-.0543349.1965209-.1925426.3196424-.4226456.3764677-.2373963.0584038-.5550187.0248611-.9433859-.1006282-.2888139-.0939196-.5495487-.2186196-.7752758-.370943-.2249977-.1519289-.4361382-.3484498-.6279515-.5844327l-.0353724-.0441975L61 12.6859144l.0342784.047749c.3562768.4972216.9032729.8677701 1.6256724 1.1021745M67.5818194 15.2079809c.1798852.1875112.3969756.3479549.6447693.477016.3554359.1847652.6881152.2891124.9908137.310688.0393724.002746.0780225.0043151.1170337.0043151.2622424 0 .5136482-.0635498.7484382-.1886881l.0559884-.0298135-.2405694-.4079742-.0433459.0200065c-.2170904.0988553-.4439336.1380835-.6751114.1153311-.2340676-.0227524-.4912529-.1067009-.7650541-.2494919-.2062539-.1070932-.3821658-.2392925-.5241234-.3934597-.1412352-.1541672-.2492386-.3204951-.3211204-.4954533-.0711595-.173389-.1069198-.3554083-.1058361-.5409581.001806-.1847652.0419009-.3683536.1202847-.5452731.0838019-.1910418.1957787-.3514855.3319569-.477016.1354557-.1251383.2915007-.2157556.4638004-.2691061.172661-.0529582.3604929-.0698263.5584389-.0490353.1983072.0215755.4042.087479.6129824.1957491.5302641.2757749.8651107.6602121.9958707 1.1419355l.0111977.0400128L71 13.903248l-.0162547-.0800257c-.067186-.3306944-.20806-.6335368-.4197322-.8995046-.2105885-.2651832-.4880019-.4883922-.8246546-.6645272-.2452652-.1274919-.4945038-.2086945-.7412138-.241254-.2470713-.0325595-.484751-.020791-.7065372.0353055-.5140094.1321993-.8896734.4601478-1.1165166.9740384-.2300941.5213439-.2333451 1.047003-.010114 1.5632472.095722.2216399.2362348.4295498.4168425.6174533M74 15.2383728L73.6470983 15 72 17.7616272 72.3525663 18zM78.1135385 21.6347548l-2.4254505-1.9139315.7582523-.9195447 1.6125817 1.272706.301786-.3648554-1.6129804-1.272706.6326742-.7663523 2.3186095 1.8293444L80 19.1349497 77.2950885 17 75 19.7804631 77.8121512 22zM80.3110316 23.6213123l2.1414186-1.9190755-.3419855 3.8853384-.0022377.0248941L82.4587902 26 85 23.7227465l-.3110316-.3440588-2.1417916 1.9194471.3419856-3.88571.0022376-.0248941L82.5415828 21 80 23.2772535zM84.0140306 28.4775662c-.0298326.2243371-.0120105.4613589.0526914.7052667.0647019.2428205.1770586.4841913.333583.7179513.2247132.3345124.4722853.5943666.7353548.7734014.2653941.1797597.562558.287398.8821932.3189284L86.0848796 31l-.0038744-.447587-.0499793-.0079732c-.2487344-.0384164-.4753848-.1297459-.6733649-.2710892-.2003048-.1431554-.3893739-.3464722-.5625581-.6045143-.1305661-.193894-.2208389-.3917746-.2677187-.5878431-.0476547-.195706-.0573406-.3841637-.0309949-.5588495.0271205-.1743234.0906601-.3355997.1894565-.4794799.0984089-.1435178.2320746-.2656529.3959603-.3620562.1770585-.1040142.3630281-.169612.5528721-.1946189.1890691-.0253693.3785256-.0126846.562558.0376916.1844198.0507386.363803.1384439.532338.260579.1681475.1224975.321185.2844986.4533009.481292.3351327.4990504.4370285.9785303.3022005 1.4250301l-.0112356.0373291.3816251.2649281.0271206-.0710341c.1135189-.2942839.1449013-.6063264.0933722-.9277917-.0511417-.3203781-.1855822-.6436556-.3986723-.9604095-.1545873-.2304982-.3382322-.427654-.5451234-.5853061-.2065037-.1572897-.4281175-.2754382-.6594172-.3508213-.5354375-.171424-1.0491785-.1166988-1.5265004.1638133-.4831335.2841362-.7628628.6933069-.832214 1.216277M88.4639315 38l.4713063-.1928746-1.2626092-3.0443022 1.1880139-.4863977.8391964 2.0239198.4708825-.1928746-.8391964-2.0239198.990506-.405542 1.2062389 2.9095427L92 36.394677 90.5920149 33 87 34.4705635zM13.7921144 68.3363718l1.0693563 2.1978514c.0976816.2014324.1216735.3825181.0719759.5391877-.0496977.1554489-.1585184.2689835-.333317.3454871-.1739418.0760967-.327319.080573-.4682718.0146497-.1448087-.0671442-.271195-.2107919-.3761598-.426874l-1.0637868-2.1872711 1.1002032-.4830308zm1.5290595-.6706275l1.0796386 2.2194189c.0775455.1591112.0916836.3011313.041986.432571-.0484124.1310328-.143095.2262554-.2896174.290551-.0818297.0358102-.1640879.0545292-.2454892.055343-.0766886.0024416-.161089-.0130219-.2364923-.0419142-.0758317-.0284854-.1465224-.0724343-.2099297-.1302189v-.000407c-.0638358-.0581915-.116104-.1285912-.1559478-.209978L14.2599578 68.13087l1.0612161-.4651257zm-.0441281 3.8463416c.0779739-.1371368.1229589-.3064214.1328127-.5050052.1452371.0931879.2891889.1501587.4288565.1696915.1765123.0252299.3615932-.0048832.5518152-.0883047.2896174-.1273704.4798394-.3222919.565525-.5806951.0844003-.2559615.0471271-.5509888-.1109628-.8757223L15.5649495 67 12 68.5642549l1.2908536 2.6528038c.0818297.1684707.1790829.3129323.2896173.4293155.1126766.1184179.2373491.2079434.3710187.2653211.1336695.0581916.2750508.0878978.4202879.0883047h.0038558c.1435234 0 .2917595-.0329617.440424-.0980711.2095013-.0919672.3645922-.223.4609885-.389843zM18.4570379 74.522123l-.8167727 1.6826951-.9461518-1.4834437 1.7629245-.1992514zM19 74.4557059L18.709345 74 15 74.4211537l.288863.4537863.9196309-.0971302 1.2056267 1.8907764-.4246931.8730205L17.2822328 78l1.7023564-3.5128131L19 74.4557059zM24.962566 81.2096817l.0124738-.0808171c.0579429-.3798007.0148881-.7663693-.1279571-1.1481605-.1428453-.3790045-.3850786-.7468617-.7214691-1.0932208-.2414286-.2488212-.507-.4498687-.7886667-.5967728-.2824714-.1477002-.5758072-.2396646-.8707524-.2731061-.6824382-.0812153-1.2787668.119036-1.7749025.5911991-.3106381.2950024-.5194738.632603-.6208739 1.0032471-.1014.3714403-.0933523.7639806.0245453 1.1668719.1323833.4562385.3923214.8865997.7721691 1.2775475.3388048.3487478.6912905.6035407 1.0482024.7576108.2856905.1238134.5721858.1859192.8542548.1859192.072831 0 .1452596-.0043793.2172857-.0123415l.0667953-.0079623-.0941572-.4805235-.053919.0031849c-.3090286.0171189-.6043762-.041802-.8812143-.1759663-.280862-.1357569-.5649429-.3507384-.8437929-.6389729-.2144691-.2205551-.3794453-.4538498-.4909048-.6943106-.1114596-.2396646-.1730239-.4805235-.182681-.7158089-.0100595-.2352853.030581-.4653951.1203119-.6847559.0889262-.2197589.2321738-.4243894.4249143-.6079199.3983572-.3778101.8788001-.5322783 1.4276477-.4590254.2257357.0306548.4534834.1058983.6768048.2241382.2241262.119036.4329619.2770872.6200691.4693763.2639619.2719118.4595191.5529802.5822453.8356411.1219214.2806703.1762428.5880142.1629643.9144676l-.0016096.0410058.4422167.199455zM29.4196871 83.7265672l-3.056467.0263713 1.1270508-1.4696353L27.1114079 82 25 84.7524111l.3792446.2836799.6478443-.8457655 1.3403281-.0150693.1613888 2.44349.0019077.0263713L28.0049599 87l-.1743609-2.8262508L30 84.1598101zM30 88.2306019L33.2855486 90l.2415479-.4242204-2.833941-1.5260656.60822-1.0680042 1.8839079 1.0144227.2415479-.4238176-1.8839079-1.0144227.506712-.8907421 2.7088167 1.4587866L35 86.7017162 31.8395757 85zM38.4425254 89.1273425c.2067313.0654539.3839296.1543103.5264586.2640095.142101.108968.2516729.2347564.3261475.3740745.0744746.1396837.11428.2932626.1185602.4570801.0034241.1641832-.0338132.337508-.1104279.5152208-.0500778.1170125-.1185602.2267118-.2015951.3265381-.0821789.0987293-.1827625.1864887-.2991826.2614498-.169066.1129902-.369805.1846604-.5979371.2120852-.228132.0274248-.45498.0062163-.6749798-.0632599l-1.8507373-.5857939 1.0054075-2.317945 1.758286.5565408zm.9001158-.0570436h-.0004281c-.2110114-.1510193-.4708166-.2760764-.7729952-.3718804L36.3632281 88 35 91.1428833l2.3279741.7364475c.2525289.0804461.5054858.1206692.7511665.1206692h.0235408c.254241-.002194.5016337-.0482677.7336179-.1371241.2375484-.0873937.4442797-.2131821.6154857-.373343.171206-.1601609.3047468-.3492093.397198-.5623915.1052917-.2424353.1557975-.4808483.1506613-.7071944-.0055642-.2281744-.0637742-.440991-.1733461-.6322333-.1091438-.191608-.2722176-.3652985-.483657-.5174148zM48.8590786 93.3757795c.2030916.0249447.3572908.0981694.4588366.2180648.1004175.1198954.1402836.2655401.1214788.4449809-.0191808.1786361-.0849976.3041641-.2015872.3842285-.1188462.0812714-.2907219.1094347-.5084812.0828807l-2.2129464-.2667471.1188462-1.1309596 2.2238532.2675518zm.0022565-.4864212l-2.1753368-.2619192.1143331-1.0907262 2.2452906.2703682c.1617211.0189096.2798151.080869.3618039.1874874.0816128.1062161.1135809.2313418.0977849.3818145-.0090263.0840877-.0315921.1597264-.0680733.2249045-.0364813.066385-.0838693.123114-.1406598.1693824-.0571665.045866-.1241115.0800644-.1985784.101388-.074467.0213237-.1549514.0269564-.2365642.0173004zm.1865434-1.5691008L46.3851219 91 46 94.6644538l2.683818.3230739c.070706.0080466.1387793.0124723.204596.0124723.0940239 0 .1831586-.008449.2666518-.025347.1447968-.030175.2722932-.0844901.3787282-.1621404.1064351-.0776504.1944414-.1762221.2606343-.2920942.0665689-.1162744.1086916-.2534701.1244876-.4075638.0229418-.2152485-.0101546-.4071616-.098537-.5697043-.0722104-.1335748-.1857913-.2558842-.33811-.3653189.1391554-.068799.2497275-.1553007.3294598-.2578958.0996653-.1283444.1602167-.2924965.1809019-.4888352.031216-.2977268-.0368573-.5503923-.2019633-.7511567-.1639777-.1991551-.4137051-.3202575-.7427888-.3596862zM55.4051185 91.0272427l-1.3410427 1.8972013-1.4745023-1.7682239L52 91.1830371l1.8547867 2.2628499L53.9112796 95l.4720379-.0217091-.0564929-1.554113L56 91zM64.7092326 91.669992c-.1097594-.1040361-.2519562-.1712594-.4224416-.1992691-.1648276-.0268093-.3651102-.0244085-.5936812.0100035-.2255537.0332115-.4880709.0900312-.7815169.1680583-.2180101.0596206-.4126349.1048363-.5801028.1344466-.1636961.0292101-.3043843.0396137-.4182926.0308107-.1078735-.0080028-.1942477-.0368128-.2564824-.0856297-.0611031-.0472164-.1052332-.1196415-.1312586-.2164751-.046016-.1676581.0056577-.3205111.1595471-.4669619.1633189-.155654.437906-.2937019.8165946-.4105424.2519563-.0772268.498632-.1244431.7321064-.1400486.2330972-.0152052.4733608.0024009.7151332.0524182l.0479018.0104036.1659592-.4445541-.0626119-.0184064c-.4975003-.1476512-1.0757172-.1216422-1.7195634.0768266-.5189997.1596554-.8980655.3753302-1.1255051.6406222-.2353603.274095-.3085332.582602-.2165013.9159176.050165.184464.1312587.3253128.241018.4177449.1090051.0920319.249316.1484514.4179154.1664577.1614331.0180062.358321.0064022.5834975-.034412.2206502-.040414.4812816-.1000346.7720874-.1784618.2183872-.0552192.4137664-.0976339.5797256-.1248433.1625645-.0272095.3024983-.0336117.4179154-.0196068.109005.0132045.1983966.0480166.2651575.1032358.0652521.0540187.1139083.1376477.1448371.2496866.0543139.1996692-.0015087.3869341-.1716169.5717982-.176143.1920666-.4695891.3521221-.8716629.4761652-.3002353.092432-.5914182.1416491-.8660052.1460506-.2727011.0052018-.5601123-.0368128-.8490321-.1232427l-.0531824-.0160056-.1493633.4665618.0546911.0200069c.2708153.100835.5646385.1512525.8795837.1512525.3439882 0 .7128702-.0600208 1.104383-.1808627.557472-.1720597.9610545-.4057407 1.1998094-.6946409.245167-.296903.3187171-.6330195.2180101-.9991465-.0539368-.1980687-.1372935-.3513218-.2470529-.4553579M70.5438427 89.1552747c-.0638764.2468572-.177194.4653219-.3377873.6486902-.161676.1849458-.3821761.3521462-.6557261.4964749-.2057038.108838-.4106859.1762702-.6095329.200325-.1988471.0244491-.3857849.0118302-.556483-.0366737-.1696155-.0477152-.3226302-.1317097-.4547138-.2488289-.1320835-.1167248-.2389051-.2661799-.3175778-.4440275-.0848077-.1916496-.1302791-.3876368-.1360532-.5824411-.0054133-.1944099.0267054-.3844821.0956342-.5643014.0689288-.1810023.1743069-.3517518.3125255-.507122.1389403-.1561589.3150516-.2910234.5229208-.4006501.5286949-.2791931 1.0137229-.3245423 1.4413703-.1344701l.0357275.0161679.301699-.3549065-.0678462-.035885c-.2793241-.1498494-.5849928-.2184647-.9083448-.2062401-.3222693.0138019-.6557261.1104153-.9913481.288263-.2443184.1289493-.4583226.290629-.6355166.4807012-.177194.1904665-.3168561.40065-.4150165.6250298-.2251916.5217126-.223748 1.047763.0046915 1.5639548.2316875.5225013.6077285.8553248 1.1183792.9882176.1342489.0350963.2749936.0524473.4207907.0524473.0920254 0 .1862161-.0070981.2825721-.0212944.2472055-.035885.4976589-.1206682.7448644-.251195.354388-.1869174.6369601-.4057764.8404986-.650662.205343-.2464628.342118-.5343315.4070771-.8537474L71 89.1560633l-.4435263-.0504756-.012631.049687zM73.6540755 88L74 87.7565145l-1.6259112-2.7098972L72.3459245 85 72 85.2434855l1.6259112 2.7098972zM80 84.7379064l-.2950129-.371134-2.3710294 1.9516257-.7445563-.9337827 1.5761336-1.297383-.2950129-.370341-1.5765238 1.2969865-.6204636-.7783505 2.2660579-1.8651864L77.6441895 82 75 84.1760508 77.2512292 87zM82.2063421 77.3354633l2.0857526 1.9752582-3.932187-.0326919L80 79.6562152 82.4750633 82l.3189668-.3358348-2.0857526-1.9752581 3.932187.0330633L85 79.3437848 82.5253089 77zM87.9124358 73.168527l-.4348941.1727356.0110534.0464776c.0541235.2323879.0491686.4651418-.0152461.6924062-.0655581.2290942-.1940062.4720951-.3815328.7220494-.1410262.1881061-.3007287.3414456-.4741527.4570906-.1734241.115279-.3525653.1957914-.5336124.2386093-.1795224.0428179-.3598072.0479414-.5370427.0161025-.1764733-.031839-.3445612-.1021043-.4993087-.2093321-.1669445-.1156451-.2995853-.253248-.3941109-.4095151-.0945256-.1566332-.1516984-.327173-.1703748-.5068619-.0190576-.1807868 0-.3710887.0567916-.5650503.0575539-.1939616.1585591-.3890211.3018721-.5796889.3624753-.4823422.7920333-.7535225 1.2776205-.8043916l.0404021-.0043916L86.2769139 72l-.0792796.0025618c-.3285528.0128087-.6441464.1039341-.9387766.2708142-.2931057.1661482-.5583872.4058555-.7886029.7129003-.168469.2232388-.2923433.4589204-.369336.6993596-.0769926.2404391-.1101528.4794144-.0987182.7103385.0308732.5339433.2748103.9628545.7241882 1.273925C85.043507 75.8898445 85.3838754 76 85.742158 76c.1555099 0 .3148313-.0204941.477202-.0625801.2294533-.0589204.4543328-.1643183.6677777-.3132662.2126827-.1485819.40707-.3388838.5766825-.5646843.2427937-.3231474.4047831-.6382434.4817758-.936871.0773738-.3004575.0720376-.600915-.014865-.8933212l-.0182952-.0607502zM89.0022689 70.7151909l.9853334-1.9155411-.4310834-.2342838-.9849283 1.9155411-.9047079-.4927464 1.4160117-2.7538769L88.6522162 67 87 70.2128564 90.2821489 72 92 68.6595798l-.4306782-.2342838-1.4816466 2.8810238zM11 51c-.5523236 0-1 .4477512-1 1.0001672C10 52.5525832 10.4476764 53 11 53s1-.4474168 1-.9998328S11.5523236 51 11 51M94 53c.5519893 0 1-.4477512 1-.9998328C95 51.4474168 94.5519893 51 94 51c-.5523236 0-1 .4474168-1 1.0001672C93 52.5522488 93.4476764 53 94 53" fill="#000"/>
  </g>
</svg>
