<svg width="43" height="44" xmlns="http://www.w3.org/2000/svg">
  <g fill="#F55036" fill-rule="evenodd">
    <path d="M27.5195 4.2803v35.419c7.221-2.808 12.124-9.85 12.124-17.709s-4.903-14.901-12.124-17.71zm-2.699 39.076V.6233l1.716.484c9.306 2.625 15.806 11.212 15.806 20.883 0 9.67-6.5 18.258-15.806 20.882l-1.716.484zM15.5352 4.2803c-7.221 2.809-12.124 9.851-12.124 17.71s4.903 14.901 12.124 17.709V4.2803zm2.699 39.076l-1.716-.484c-9.306-2.624-15.806-11.212-15.806-20.882 0-9.671 6.5-18.258 15.806-20.883l1.716-.484v42.733z"/>
  </g>
</svg>