<svg width="45" height="45" xmlns="http://www.w3.org/2000/svg">
  <g fill="#F55036" fill-rule="evenodd">
    <path d="M22.2725 2.8779c-10.695 0-19.399 8.705-19.399 19.4 0 10.696 8.704 19.4 19.399 19.4 10.699 0 19.404-8.704 19.404-19.4 0-10.695-8.705-19.4-19.404-19.4m0 41.446c-12.155 0-22.045-9.89-22.045-22.046 0-12.156 9.89-22.046 22.045-22.046 12.16 0 22.05 9.89 22.05 22.046 0 12.156-9.89 22.046-22.05 22.046"/>
    <path d="M22.2725 10.3393c-6.582 0-11.938 5.356-11.938 11.939 0 6.582 5.356 11.939 11.938 11.939 6.587 0 11.942-5.357 11.942-11.939 0-6.583-5.355-11.939-11.942-11.939m0 26.523c-8.043 0-14.584-6.541-14.584-14.584s6.541-14.585 14.584-14.585c8.044 0 14.588 6.542 14.588 14.585 0 8.043-6.544 14.584-14.588 14.584"/>
    <path d="M22.2725 19.9014c-1.525 0-2.77 1.244-2.77 2.773 0 1.526 1.245 2.769 2.77 2.769 1.529 0 2.773-1.243 2.773-2.769 0-1.529-1.244-2.773-2.773-2.773m0 8.188c-2.986 0-5.415-2.429-5.415-5.415s2.429-5.419 5.415-5.419c2.987 0 5.419 2.433 5.419 5.419 0 2.986-2.432 5.415-5.419 5.415"/>
  </g>
</svg>