<svg width="45" height="44" xmlns="http://www.w3.org/2000/svg">
  <path d="M22.2578 41.0322c-6.732 0-12.657-3.494-16.084-8.756l16.084-17.761 16.088 17.761c-3.427 5.262-9.353 8.756-16.088 8.756m0-38.387c10.586 0 19.197 8.612 19.197 19.194 0 2.849-.641 5.547-1.76 7.981l-17.437-19.246-17.433 19.246c-1.119-2.434-1.76-5.132-1.76-7.981 0-10.582 8.612-19.194 19.193-19.194m0-2.645c-12.042 0-21.839 9.796-21.839 21.839 0 12.042 9.797 21.839 21.839 21.839 12.043 0 21.843-9.797 21.843-21.839 0-12.043-9.8-21.839-21.843-21.839" fill="#F55036" fill-rule="evenodd"/>
</svg>