
<svg width="103" height="103" xmlns="http://www.w3.org/2000/svg">
  <g fill="none" fill-rule="evenodd">
    <path d="M51.4993965 14.7095149c-20.2860804 0-36.7895942 16.5032403-36.7895942 36.7906863 0 20.2866412 16.5035138 36.7898816 36.7895942 36.7898816 20.2872874 0 36.7908012-16.5032404 36.7908012-36.7898816 0-20.287446-16.5035138-36.7906863-36.7908012-36.7906863m0 88.2904851C23.1025856 103 0 79.8972339 0 51.5002012 0 23.1027661 23.1025856 0 51.4993965 0 79.8974144 0 103 23.1027661 103 51.5002012 103 79.8972339 79.8974144 103 51.4993965 103" fill="#000"/>
    <path d="M28.1192708 62.9822185c1.4082825-.0076708 2.8129673-.0092857 4.1912693-.0088819.0423724 0 .0759505-.0347206.0759505-.0775156V52.1526474c0-.209938-.0011992-.4194722 0-.6290065v-.8369259h.0131914c.0035977-.1877331.0035977-.3766773.0083945-.5640065.0267826-.9798453.1862787-1.9609017.462099-2.8361817.7507109-2.3827963 2.4380116-3.9718655 5.0163318-4.7219902 1.378302-.4013045 2.774992-.2470808 3.933837.4344102 1.1608437.6818948 1.9843072 1.8345352 2.3200884 3.2447533.2158594.9075782.3297852 1.8648147.3385794 2.8458711.0051966.5845966.0075951 1.172423.0111927 1.7590383l-.0063958.0008074V62.895821c0 .042795.0343776.0775156.07675.0775156.8434505 0 8.408122.0274534 10.3624487.0266634.0703542 0 .1039323-.0876262.0511667-.1344585-.4005391-.3560872-1.092888-1.0779509-1.677707-1.8034482-.7499114-.931398-1.217207-1.8373613-1.2244023-1.8373613-1.2671744-.0637888-1.7540572-.5058698-1.9739139-1.4679511-.164293-.7194414-.1986706-1.5010567-.210263-2.1716471-.0207865-1.1615224-.0271823-2.3452497-.0335782-3.4898156 0-.0500621-.0007994-.1013354-.0007994-.1513976-.0403737-.6261804-.0451706-1.2475162-.0139909-1.8636035-.012392-1.2874851-.0335782-2.5870821-.0851446-3.8761822-.104332-2.6141319-1.2515845-4.8108101-3.3182381-6.3510283-1.3619127-1.0153732-2.9956483-1.6193487-4.8556364-1.7949699C41.1727662 38.0193789 40.7758248 38 40.3876777 38c-1.6817043 0-3.189522.3633542-4.5814151 1.0997522-1.2395924.6560562-2.3220871 1.5866468-3.2834608 2.825281-.0451706.0573292-.1363112.0274534-.1363112-.0460249v-3.1527036H27.07675c-.0423724 0-.07675.0343168-.07675.0767082V62.895821c0 .042795.0343776.0775156.07675.0775156h.8898203c.0503671.0040372.0991354.0104969.1527005.0088819" fill="#000"/>
    <path d="M73.8807292 39.0173995c-1.4082825.0076709-2.8129673.0092858-4.1908696.0088821-.0423723 0-.0763502.034721-.0763502.0775167v10.7433378c0 .2099413.0011992.4194787 0 .6290162v.8369387h-.0131914c-.0031979.1881397-.0035977.3770868-.0083945.5640152-.0267826.9798602-.1862787 1.9609317-.462099 2.8366287-.7507109 2.3824291-2.4380116 3.9715226-5.0163318 4.7216587-1.3779022.4013107-2.774992.2470846-3.933837-.4340131-1.1608437-.682309-1.9843072-1.834967-2.3196887-3.2452067-.2158593-.907592-.3297851-1.8648432-.3389791-2.8459146-.0047969-.5846055-.0075951-1.1724409-.010793-1.7590651l.0059961-.0008075V39.1037983c0-.0427957-.0339779-.0775167-.0763503-.0775167-.8438502 0-8.4081219-.0274539-10.3628484-.0262816-.0703542 0-.1039323.0872453-.0511667.1340783.4009388.3560926 1.0932878 1.0779674 1.677707 1.8038795.7503112.9310085 1.217207 1.8369856 1.2244023 1.8373894 1.2671744.0637898 1.7540572.5054738 1.9743137 1.4679735.1638932.7190487.1982708 1.5006759.210263 2.1712766.0203867 1.1615402.0267825 2.3452856.0331784 3.489869.0003997.0500629.0007994.101337.0011992.1513999.0395742.62619.0447708 1.247939.0139909 1.863632.0119922 1.2875048.0331784 2.5871217.0847448 3.8762415.104332 2.6141718 1.2515845 4.8108836 3.3182381 6.3511254 1.3623124 1.0153887 2.996048 1.6193734 4.8556364 1.7949973C60.8272338 63.9806208 61.2241752 64 61.612722 64c1.6813046 0 3.1891223-.3633598 4.5814152-1.099769 1.2395924-.6556625 2.3216873-1.5862673 3.2834607-2.8249205.0451706-.0577338.1359115-.0274538.1359115.0456219v3.1527518H74.9236497c.0423724 0 .0763503-.0343174.0763503-.0767093V39.1037983c0-.0427957-.0339779-.0775167-.0763503-.0775167h-.89022c-.0499674-.0040374-.0991354-.0104971-.1527005-.0088821M80.142676 60.172233h.5113519c.4484269 0 .4401291.827539-.0127924.827539h-.4985595v-.827539zm.5113519-.2521373h-.7063501v2.0991679h.1949982v-.7892397h.3447044l.5196497.7892397h.2160885v-.0442266l-.4985594-.7450131c.6316699-.1039553.6067765-1.3099282-.0705313-1.3099282zm-.153855 2.8332384c.8225193 0 1.2920364-.7782971 1.2920364-1.7535621 0-.9807363-.4695171-1.7590334-1.2920364-1.7590334-.8228651 0-1.2882333.7782971-1.2882333 1.7590334 0 .975265.4653682 1.7535621 1.2882333 1.7535621zM82 60.999772C82 62.0849196 81.4641005 63 80.5001729 63 79.5403941 63 79 62.0849196 79 60.999772 79 59.909609 79.5403941 59 80.5001729 59 81.4641005 59 82 59.909609 82 60.999772z" fill="#000"/>
    <path fill="#fff" d="M11.3661764 25.653157l6.0345867-.7026451-3.6087759-2.5976962L14.0491723 22 18 24.8459898l-.3722075.5093856-6.0255401.6919795 3.6079144 2.600256L14.9529817 29 11 26.1514505z"/>
    <path fill="#fff" d="M14.9636454 29L11 26.1411803l.2327911-.3171347-.0108455-.0057591.0178176-.0023036.3032868-.4150395.1096171-.0115182 4.7836432-.5582492-2.9259628-2.1070645L14.0379039 22 18 24.856516l-.2312417.315215.0108455.0080628-.0178176.0019197-.310259.4250219-.1103917.0115182-4.7739598.5482668 2.9236388 2.1109039zM9.59919974 34.4565969c.57182576.2200126 1.13680566.1934784 1.69332906-.0862361.2259114-.1127702.4320908-.2690271.6221625-.4661907.1880582-.1953211.341082-.4212301.4594741-.6766216.1167813-.25576.1864474-.5133627.2089983-.7746506.0229535-.2627621 0-.5056235-.0688608-.731164-.1683261-.5542696-.5408182-.9415949-1.1170736-1.1630815-.2794698-.109085-.5545099-.1621534-.8279393-.1580995-.2730266.0036853-.5295428.0563851-.7731728.1651015-.24322729.1057682-.4639037.261288-.66323732.4665593-.19893093.2067455-.36645171.456609-.50296504.7495906-.13449986.2933501-.21302522.578961-.23195185.8538846-.01973202.2741865.01208082.5277353.09624391.761015.08416308.2329111.21987102.4396566.40792921.6220791.18644741.1824224.41799656.3309401.69706363.4378139m-.16752078.3685303c-.67692892-.2631306-1.11908714-.7142117-1.32768273-1.3532431-.08859272-.2727124-.12121095-.565694-.09543852-.8759965.02456435-.3121451.11194899-.6298182.26054314-.9530192.14980224-.3232011.33786042-.6029155.56497994-.8380378.22671683-.236965.47840069-.4193875.7550516-.5505842.64350531-.3121452 1.30593721-.3364682 1.98447691-.0751802.6696805.2590768 1.1102279.7120004 1.3200316 1.3565599.0910089.2782403.1240298.5734331.097452.8870523-.0269805.3121451-.1103382.6283441-.2569189.943806-.1433592.3103025-.3294039.5867002-.5565234.8196113-.2279249.2365964-.4816222.4245469-.7627028.5579548-.6511565.3121452-1.3115749.3383108-1.98326884.0810767"/>
    <path d="M11.1056022 30.96442h-.0258014c-.2619496.0044384-.4959112.0536645-.7180654.1545375-.2309005.100873-.44168461.250972-.63322703.4482796-.19329167.2037634-.36165658.4551389-.49722313.7492846-.13294268.2921282-.2099095.578204-.23002583.8477366-.01792977.2675152.01224472.5148558.0913981.7347589.07915337.2199032.20291251.4095444.37958634.5826425.18060964.1767295.40232655.3187586.65946565.4176142.5466394.2118333 1.0666027.1852028 1.5918138-.0823124.2116587-.1073289.4136966-.2594453.5986793-.4547355.1827962-.1916587.3336687-.4155967.4495562-.6689897.1145756-.250972.1836708-.5104173.2059737-.7658278.0227402-.2590418.001312-.4918567-.0655967-.7097424-.1591814-.528978-.5020336-.8888928-1.0482356-1.1007261-.2606376-.1032939-.5085932-.15252-.758298-.15252M10.823099 36c-.3620939 0-.7281236-.0698041-1.0932787-.2118333h-.00131193c-.81427394-.3191622-1.35260435-.8747706-1.60362112-1.6482647-.10757862-.331267-.1447501-.6875504-.11501292-1.0559386.02755062-.3659672.13075613-.7448462.30436878-1.1253391.17536189-.3808964.39795343-.7145843.66252686-.9897659.26544806-.2804269.57025414-.5023475.90217354-.6629373.77404129-.374844 1.58219289-.4055094 2.39777869-.0903822.807277.3147238 1.3438582.8727532 1.5957496 1.6543171.1093278.3332844.1482486.6936028.1171994 1.0660259-.0314864.376458-.1329426.7533195-.3004329 1.1152518-.1701142.3704057-.3896445.6956202-.654218.9695913-.2733196.2860758-.579875.5120313-.9100451.6706036C11.6977219 35.897513 11.262597 36 10.823099 36M6.48082685 42.0538485c-.1535306-.1414978-.26983003-.3162458-.34928211-.5294163-.08137122-.2131704-.12512744-.4599604-.13126866-.7440644-.00383827-.2829957.03224142-.5881582.11476412-.9199208.08213887-.3332404.19191325-.6254723.327404-.8722623.13549075-.2508539.29209196-.4540492.46596536-.6121722.17348958-.1584924.36156456-.2678484.56000286-.3243737.20074126-.0620669.40647226-.067978.61680918-.0188417L11 38.6959528l-.0921184.3657517-2.76700516-.6295362c-.81524748-.1865703-1.36910911.318832-1.6631202 1.5114041-.29170814 1.1870303-.03108995 1.8727223.78607666 2.0592926l2.7670052.6291667L9.9410227 43l-2.9147784-.6631558c-.21072075-.0491363-.39188685-.1433451-.54541745-.2829957" fill="#fff" />
    <path d="M9.72972986 44l-3.41268462-.7787786c-.27329678-.0653324-.51217226-.1903859-.71289402-.371954h-.00124415c-.19657461-.1819688-.34670122-.4092295-.44498852-.6769722-.09745788-.2553176-.15054132-.5559269-.15759147-.8890021-.00456186-.3350792.03856844-.6930047.13104975-1.0653595.09414016-.3819742.22062805-.7210616.37821951-1.0076425.15551789-.2901882.34379822-.5374895.5565467-.7314827.21896919-.2004063.4586741-.3394882.71413816-.4132377.25587877-.0777576.52959026-.0877779.80661946-.0224455L11 38.8219038l-.2264341.9058362-3.25219011-.7423047c-.34670122-.0857739-.62621871-.0224455-.86177648.1943941-.25795234.2352769-.46365067.65613-.60921542 1.2509356-.36826637 1.502646.19367161 1.8152797.64819857 1.9174869l3.25301959.7439079L9.72972986 44zM6.62826357 50.2519639c.16203896.1779014.3995027.274683.71156237.2927543.65395773.0389535 1.00290096-.3048018 1.05014505-1.0380929l.18151678-2.8412018-1.96435971-.1164591-.19021965 2.9881813c-.02030667.3031954.05055947.5405311.21135516.7148182zm-2.59676751.0614423l2.0169913-1.3107679.159138-2.4781705-1.92540406-.1168608L4.30832988 46 9 46.2847226l-.22005802 3.4263086c-.01243266.2092249-.05801906.3975675-.13427269.5634214-.0758392.1658539-.17737256.3052033-.31081641.4180482-.12971405.1104354-.28263572.1923584-.46042271.2433595-.17654372.0534106-.37132201.0738913-.58226274.0598359-.40613345-.0228903-.71902197-.1602317-.93949441-.407607-.22213013-.2501864-.33319519-.5959497-.34024036-1.0429119L4 50.8093615l.03149606-.4959553z" fill="#fff" />
    <path d="M6.83029359 47.1871589l-.15495255 2.9250215c-.01445729.2482045.0270611.4330652.12752076.5627693h.0011121c.10008897.1335823.25318802.2042517.46967675.2197645.3269573.0176673.639828-.0616203.68245848-.8506177l.14865066-2.7668773-1.2744662-.0900603zM4 52l.06524318-1.2285263 1.80345492-1.4064924.12084816-2.2398736-1.72301305-.1249641L4.3210261 46 9 46.3408503l-.21129893 3.9583453c-.0129745.2546682-.06042408.4895145-.14086596.7010917-.08266607.2176099-.19721233.4020396-.34030249.544671-.14234875.1473715-.3113879.2550992-.50155694.3210285-.18423784.0637748-.39257117.0792875-.6072064.0745475-.42408067-.0284401-.76364176-.2085607-1.00682088-.5338983-.15940095-.2176099-.26727462-.4903763-.3221382-.8174375L4 52zM4 54.4618644L8.96662568 54 9 54.5402542 4.03337432 55z" fill="#fff" />
    <path fill="#fff" d="M4.067668 55L4 54.295067 8.932332 54 9 54.7064555zM9.33523754 66.4760097c.191129.1049405.41923889.1089005.68249896.020196.5488551-.1960209.7209444-.638355.5126065-1.3270024l-.80405993-2.6639049-1.65242365.5813309.84580072 2.8076535c.08604466.2847254.22444841.4763903.4155774.5817269m1.66377426-.6906274c-.0065907.1774089-.0435716.3429377-.1109427.4906464-.0692019.1492927-.1673294.2764093-.2940165.3876859-.1281516.1069205-.2822997.1960209-.4650073.2605692-.17392004.0625683-.34198175.0847444-.50235435.0724684-.16183719-.0118801-.31012693-.0625683-.4456015-.1453327-.13620687-.0847444-.25776784-.201961-.36395061-.3552138-.10545048-.1536487-.19076285-.3354136-.2566694-.5516306l-.82456416-2.7387493-1.62020267.5718268L6 63.3939267 9.94963304 62l.96992476 3.2218716c.059682.1976049.0860446.3857058.079454.5635107"/>
    <path d="M7.89906557 62.6946532l.83498798 2.7515246c.07057354.2348604.17603735.3842009.32154571.464615.14352594.0778613.3215457.0799886.54516071.0042547.31639146-.11275.61256243-.3297405.38617203-1.0743157l-.79097864-2.5992058-1.29688779.4531272zM9.34463356 67c-.03607973 0-.07255594-.0021274-.10903215-.0046802-.20815227-.0148915-.40758197-.0799886-.59154894-.1927386-.18079511-.1106226-.3397838-.2650688-.47379422-.4556801-.13282097-.1910367-.23590591-.4122819-.31678794-.6726705l-.81278507-2.6800454-1.7544263.6139555L5 62.6686995 9.76966068 61l1.12996952 3.7237271c.0741418.2429443.1074462.4795065.0991201.7028791-.0091191.2301801-.0586791.4471706-.1466978.6403347-.091587.1952914-.2184608.3620763-.387758.5097149-.1712795.1412566-.3671409.2497518-.58679112.3280386C9.70186251 66.9676642 9.52186035 67 9.34463356 67zM13.2957754 73.2679563c.2302627.0610297.4826898.0209673.7523558-.1183151.5656008-.290546.6624672-.7331045.2934721-1.3291732l-1.4271365-2.3123869-1.697213.8746334 1.5038908 2.4344462c.1518667.244493.3423158.3953822.5746308.4507956zm-2.1249025 1.3273011l.946499-2.014727-1.2477697-2.0188455-1.66437693.8559126L9 71.0873635 13.0560722 69l1.7238923 2.7901404c.1067172.1718565.1727997.3377223.2027626.5035881.0295524.1684868.0213434.3268643-.0258584.4796256-.0467914.1508893-.1288815.2920437-.2462703.4182216-.1182098.129922-.2688451.2403744-.4506747.3358502-.3509352.1797192-.6879151.2276443-1.0088874.1392824-.3217933-.0857411-.6095191-.3014041-.8615357-.6469891L11.4212477 75l-.2503748-.4047426z" fill="#fff" />
    <path d="M11.6660052 69.841403l1.2414875 2.2615326c.1050661.1906214.2260963.3015631.3701444.3400686l.0063114.0019062c.1410781.0411742.3077731.0080061.4934022-.0972169.1808027-.1048418.2858688-.2237896.3241084-.3614182.0464073-.1692719-.0048263-.389249-.1511021-.6534503l-1.1709484-2.1387724-1.1134034.6473504zM11.5460888 75l-.521989-.9489135.8561214-2.0514677-.950421-1.7323676-1.50545206.87114L9 70.3705681 13.0908943 68l1.6784583 3.0568052c.1098925.1982463.1793178.3926801.2123597.5947388.0322995.2081586.021533.4083111-.0300719.5970263-.0534612.1906215-.1440482.3656119-.2710185.5192528-.1232577.1517347-.2773299.2817385-.4714979.3968738-.3786834.2195959-.7458578.2741136-1.1030082.1646969-.2357489-.0716736-.4536775-.213496-.6511869-.4235608L11.5460888 75zM17.9443286 80.1603417c.4552485-.3767093.6731948-.8618077.6534519-1.4594642-.0069681-.2410333-.063487-.4888882-.1649114-.7382592-.1025858-.2512658-.2477543-.4828245-.4362798-.7011188-.1877513-.2167784-.3991167-.3964164-.6348704-.5358822-.2338181-.1390868-.4730558-.2338326-.7157775-.2842374-.5930618-.1136949-1.117217.0174333-1.5763366.3983113-.2222046.1857018-.390213.3941425-.5051865.6245643-.1157477.2296638-.1761378.471455-.1819445.7246158-.0050325.2554346.0445183.5120062.150201.7753995.1056827.2626354.2674972.517691.4838951.7708518.216785.2493709.4509902.4449262.6975831.5915927.250077.1428766.5024767.2319377.7560377.270594.2551094.0386562.5086705.021223.7614572-.0500258.2516255-.0716278.4904761-.2012401.7126807-.3869418m.2725297.3130401c-.5400269.4468211-1.1559285.6094049-1.8442209.4873723-.2938211-.0519207-.5822225-.1622048-.8636559-.3285784-.2825947-.1659946-.5419625-.3850469-.7788775-.6609466-.236915-.2747628-.4188596-.562411-.5400269-.8621867-.1227158-.3012916-.1865899-.5953826-.1896869-.8890945-.0120006-.6863385.2527868-1.2548132.7928137-1.7008764.5338331-.4445473 1.1481862-.6029622 1.8442209-.4775188.2996278.0485099.5899649.158415.8725596.3266835.2841432.1678895.5408011.3884577.773845.6552619.2291727.2649092.4056976.5510415.5291876.8485433.1215545.3016706.1858157.6010673.18659.898569.0120006.6920233-.2508512 1.2582241-.7827487 1.7027714" fill="#fff" />
    <path d="M16.7211354 76.9807855c-.4041609 0-.7678214.136929-1.1023722.4157513-.2088305.1749878-.3712543.3752104-.4809431.5928076-.1080012.2151151-.164955.4430543-.1700176.6792673-.0042188.2449002.0417661.4873184.1442829.7404924.1033606.2573107.2611437.5088299.4817869.7682091.2096743.2403497.4433958.4385038.6927268.5882571.2332996.1332058.47799.221734.7231022.2593791.235409.0277168.4733493.0190294.7108677-.0484009.2358309-.0674303.4628022-.1898804.6750078-.3669367l.0008438-.0020684c.4324269-.3586631.6336636-.8083364.6142572-1.377564-.0063282-.2300077-.0603289-.4682891-.1603144-.7152578-.0999855-.2449002-.2408934-.4707711-.4303175-.690023-.1860491-.2171835-.3957234-.3946535-.6226948-.5274457-.228237-.136929-.4619585-.2300077-.6952581-.2784086-.1312046-.0256483-.2569249-.0380588-.3809576-.0380588M17.3332832 82c-.1695957 0-.3438321-.0144789-.5214436-.0463325-.3510041-.0632935-.6982112-.1940173-1.0340277-.392585-.3353945-.1981542-.6446325-.4620838-.9175888-.780206-.2784407-.3230863-.491912-.6647884-.6336636-1.0151778-.1489236-.3648683-.2227526-.7152577-.2261277-1.0677155-.013922-.8294342.3088161-1.5252489.9618863-2.0655187.642945-.536133 1.3964225-.738424 2.2368073-.5799834.3518478.0570882.7045395.1898804 1.0441528.3921713.3265351.1919489.6328199.4517418.9108387.7698639.2653625.3086074.4741931.6436906.6214292 1.0002852.1476579.3673505.2227526.7301503.2240182 1.0826082.013922.8290205-.3058629 1.5252488-.9500736 2.0634502l-.0008437.0020684C18.5364847 81.7869533 17.9606187 82 17.3332832 82M23.664729 85.5552983c.230591-.0176981.4438086-.1502174.6392582-.3966947.4086672-.5149693.3411483-1.0325285-.2053207-1.5453395l-2.1092757-2.0076464-1.2295553 1.5479294 2.2229918 2.1108129c.2246682.211513.4521004.3107946.6819017.2909383m1.1841478-1.6558443c.0856819.1718003.1338533.3479173.147673.5261925.01303.1808651-.0106609.3612986-.0742314.5417321-.0596219.1782752-.1583338.3565504-.2933717.5240341-.1299048.1648938-.2724448.2883483-.4276199.3764067-.1551751.0837419-.3182471.1277711-.4872419.1320877-.1693896.0021583-.3415431-.0332377-.5184348-.1122313-.1757072-.0794253-.3494401-.1981316-.5200142-.360867l-2.1677131-2.0564239-1.204285 1.51685L19 84.6967284 21.9356916 81l2.5515048 2.4241974c.1563597.1450374.2759985.3056146.3616804.4752566" fill="#fff" />
    <path d="M21.6293153 83.2210822l2.1451106 1.6955465c.182829.1436388.3573097.2116583.5205201.1960784h.0020871c.1703065-.0098799.3310124-.0968992.488379-.2637179.1531923-.1611187.2224837-.3081775.2103786-.4514364-.0133574-.1744186-.147766-.3625171-.3990515-.5582155l-2.0253117-1.6051072-.9421122.9868521zM24.3550542 86c-.2158051 0-.4286882-.0387597-.638232-.1181791-.2183095-.0813193-.4278533-.2013983-.6261268-.3602371l-2.0841676-1.6453868-1.2739594 1.3349293L19 84.627831 22.4616466 81l2.9027241 2.2963216c.1844987.1436389.3330995.3085576.4420455.4867761l.0008349.00152c.1064415.1785986.1703065.3663171.1882554.5604955.0171142.1975985-.0146096.3951969-.0960061.5870953-.0738829.1839186-.1953516.3663171-.3593968.5369357-.1531924.1626387-.3335169.2925977-.5309556.3875969-.2049521.0911993-.4161656.1394589-.6348926.1432589h-.0192012zM29.7690578 89.7055215c.2294694-.0397844.4286615-.1766128.5983732-.4078825.3533668-.4852203.2294693-.9195018-.3720909-1.3043317l-2.3301495-1.4831753-1.0660762 1.4582636 2.4536486 1.5623722c.247795.1595092.4876223.2163971.7162948.1747537zm-1.2230396 2.0327198l-.127483-2.1732664-2.0389305-1.2968953-1.04297 1.4296337L25 89.4854062 27.5460737 86l2.8169751 1.7902956c.172102.1100576.3091461.2349879.414718.3695854.1023847.1386875.1717036.2829522.2031759.4342815.0302772.1576501.0246999.3130693-.0183256.4740658-.041432.1613683-.1191169.3186466-.2338516.477784-.2203065.301543-.490411.479643-.8127039.5309537-.3191058.0535415-.6700823-.0241681-1.0541247-.2294107L28.9519717 92l-.4059535-.2617587z" fill="#fff" />
    <path d="M27.4550981 88.3026467l2.3662276 1.4649386c.2009061.1249113.3811741.1715143.55007.140573h.002106c.1684747-.0275035.317996-.1306412.4565665-.3136153.1996425-.2689223.3188384-.5962892-.3226291-.9939427l-2.2360809-1.3831924-.8162601 1.0852388zM29.8567054 93l-.9931586-.6215007-.1347797-2.2327421-1.8157365-1.122292-1.1022459 1.4687585L25 89.9937244 28.0017986 86l3.2048106 1.9790996c.2021697.1268213.371908.2727421.5058454.4385266.1356222.1795361.2228078.3602183.2623994.5473943.0395916.1986357.0324314.3938335-.0214805.5943792-.0513848.1929059-.1461519.3796999-.2868283.5687858-.2771409.3701501-.6271472.5882674-1.0407526.6524421-.270402.0488949-.5618633.0156616-.8689085-.0832743L29.8567054 93zM33 93.8638609L34.6285994 90 35 90.1383349 33.370617 94z" fill="#fff" />
    <path fill="#fff" d="M33.9530813 94L33 93.6625208 35.0460362 89 36 89.3394597zM37 95.7445994L38.1331413 91 42 92.2051152l-.0962924.4066181-3.4949579-1.0898057-.3878232 1.6247381 2.428539.7586157-.0966715.406618-2.4292971-.7586157-.4537873 1.8995738 3.6564561 1.1405245L41.0294943 97z"/>
    <path fill="#fff" d="M41.8227976 97L37 95.7419543 38.3512271 91 43 92.2125882l-.2417686.8539792-3.7397066-.9767532-.2762491.96704 2.5986073.6795312-.2421743.8539792-2.5994186-.6795312-.3468325 1.2125882 3.9125143 1.0225993zM47.6873265 92.7244932L47.1629804 97l-.4272139-.0486042.5264486-4.279661L45 92.4004653 45.0483559 92 50 92.5952974l-.0491969.4004653z"/>
    <path fill="#fff" d="M47.4132374 97l-.8668766-.1004448.4688555-3.818384L45 92.8391401 45.1000675 92 50 92.5896961l-.1030657.8372869-2.017465-.2416605zM53.4560166 93.4297758h-.053077l-1.2170588 2.834608 2.5811001-.0595342-1.3109643-2.7750738zm2.1089749 4.4572397l-.5983224-1.2658613-2.9663722.0712671-.5638037 1.2941075L51 98l2.1397818-4.9869633L53.6983891 93 56 97.8752825l-.4350085.011733z"/>
    <path d="M52.9320972 94.1347545l-.8846547 1.7836303 1.8383631-.0377344-.9537084-1.7458959zM50 98l2.4682864-4.9801603L53.3468031 93 56 97.8669571l-1.0154731.0233409-.6184144-1.1328095-2.765601.0556291-.5819693 1.1584844L50 98zM62.7030475 93.8235368c.1356485-.188617.1700921-.4261203.1020553-.7109704-.1399008-.5927961-.590645-.8164419-1.3501063-.6713223l-2.9451453.5697001.4231042 1.7903212 3.0999291-.6008797c.3133947-.0608193.5379164-.1866923.670163-.3768489zm.7819986 2.3107499l-1.892275-1.4685176-2.5730688.5004123.4133239 1.751443L59.0094968 97 58 92.7280188l3.5583274-.6871046c.2164423-.0431124.4218285-.0531207.6089299-.0254055.1909284.0254055.3601701.0804509.5107016.1705251.1501063.0866098.2768249.2040142.3788802.3475941.1016301.1451195.1764706.3141049.2219703.5046465.0880226.371075.0348688.6871046-.1573353.9461642-.193905.2632938-.5158044.4534505-.9682494.5750892L64 96.0318947l-.5149539.102392z" fill="#fff" />
    <path d="M59.1816395 93.5737203l.310347 1.4048446 2.8588885-.5923893c.2428616-.0507524.4062021-.1443533.4986184-.2862106l.0021492-.00416c.0967148-.1422733.1173473-.3265629.0644765-.562437-.0752226-.3456991-.2604851-.670182-1.0324839-.5175087l-2.7019957.557861zM59.1377955 98L58 92.8527859l3.8715996-.7999752c.2566165-.0553285.4990482-.0703046.7191281-.0299523.2355542.0320323.441879.106081.6262818.224642.1796746.1127371.3374271.2654104.4633712.4563561.1229352.1847057.2101934.3989476.2630642.6348217.1048818.4725803.0382561.888584-.1994474 1.2305391-.159042.228802-.386859.4172517-.6821615.559525L65 96.7819411l-1.1992631.2541783-1.9123734-1.5887183-2.1913417.4563561.4178078 1.891985L59.1377955 98zM68.8728784 92.2370786l.7801449 1.6139313L69.2379774 94l-.779703-1.6139313L65 90.8212887l.5038897-.1839337 2.9786952 1.3159512 1.0135254-2.7693726L70 89z" fill="#fff" />
    <path fill="#fff" d="M68.6577297 95l-.8315675-1.8320458L64 91.3279169l1.1675676-.454715 2.7347027 1.2858285.9305946-2.7043154L70 89l-1.2475676 3.8111348.8332973 1.8340437zM80.587734 86.9168415c.0437832-.2124826-.0138263-.4226087-.1755169-.6350914-.1636109-.2081623-.3575627-.3224551-.5864643-.3346307-.2292857-.0161031-.4597235.0703039-.6924658.2603993l-2.3788868 1.9190207 1.0216078 1.3263473 2.3700534-1.9150931c.2484888-.2026637.395585-.4084695.4416726-.6209521m-1.4986142-1.2438679c.0587616-.1025101.0952476-.2081623.1109942-.3146.0134422-.1060449.0053769-.2164102-.0230438-.3263828-.0291888-.1103652-.0821895-.2144464-.1563137-.3106724-.1371105-.1802764-.3057142-.2784661-.5015864-.3000679-.1966403-.024351-.3886718.0396687-.5780149.1920592l-2.4030828 1.9410152.9832015 1.2756814 2.3327993-1.8848507c.0987042-.0801228.177053-.1681008.2350466-.272182m.2891995.0659835c.2953445-.1142929.554203-.1461063.7773437-.1001535.2223725.0479166.420165.1822402.590689.402578.1086899.1425715.1820459.2886779.2223726.4410684.0380222.1496412.0410947.3043883.0107537.4587426-.0314932.1559253-.0967839.3102796-.1970244.4622774-.0998564.1523905-.2331262.2945692-.4005778.4288928L77.7003476 90 75 86.5040517l2.6581007-2.1472137c.316468-.2564716.6248706-.3746921.9225195-.3546614.298033.0223873.5526668.1704575.7642856.4426395.1566977.2046274.2388872.4088621.2427279.6170244.0038406.2105189-.0652908.4347843-.2093144.6771166"/>
    <path d="M75.3163197 86.0181413l.7133289.9241004 2.2645747-1.8245165c.083466-.0681441.1412815-.1333796.1828109-.2102495l.0020358-.0041551c.0435651-.0760388.0716586-.1545707.0842802-.2351802.0089574-.0718837.0028501-.1524932-.0187289-.2347647-.0207647-.0789474-.0602584-.1570638-.1172595-.2314406-.1005664-.131302-.2121258-.1994461-.3521858-.2160666-.1339527-.0191136-.274827.0319944-.4193657.148338l-2.3394906 1.8839348zm1.2898549 1.6637131l.754044.9764549 2.3036612-1.8560954c.2125329-.1736843.3383427-.341136.3737648-.5019394.018729-.0914128.0248362-.2376733-.1359885-.4470917-.1270311-.161219-.2630196-.2418285-.4258801-.2501387-.1824037-.0340721-.3603288.0573407-.5545399.2160666l-2.3150615 1.8627437zM77.1924723 90L74 85.876036l3.0263546-2.4390599c.3863865-.3137121.7560797-.4574795 1.1611951-.4346263.3924937.0299169.7288006.2206373.9995561.5700835.2047971.2671747.3106564.5405821.3155422.8181446.0020357.1059557-.0101788.2181442-.0374579.3307481.1498316-.017036.2919274-.0103878.4266944.0191136.3004775.0635735.56309.2393354.7821374.5235461.1368028.1778394.231669.3660667.2833772.5634353.0508939.1994461.0561868.4026318.0158789.6083106-.0407151.2011082-.123774.3984768-.2483622.5871196-.1205168.1840721-.2825629.3577564-.4816599.5168978L77.1924723 90zM84.3215146 84L81 81.2631765 81.2793685 81l3.0357238 2.5022993 2.4003211-2.2624691L87 81.4740007z" fill="#fff" />
    <path fill="#fff" d="M83.8465615 84L80 80.658017 80.6622804 80l3.152605 2.7397366 2.4919916-2.4767622L87 80.8652208zM88.4913199 79L85 76.3450492 87.4091141 73l.2998468.2289836-2.1774317 3.0220328 1.1951749.9088525 1.5137861-2.0990164.298698.2250491-1.5137861 2.1005902 1.3992852 1.0638689 2.2773806-3.1609181L91 75.516459z"/>
    <path fill="#fff" d="M89.0684274 79L85 75.9163104 87.8283313 72l.7326931.5559004-2.2753101 3.1492826.8295318.6292826 1.5806323-2.1850659.7334933.5497511-1.582633 2.1895754 1.0432173.7899854 2.3793517-3.2931772L92 74.939795zM94.7815718 68.1878281l-5.2641998 1.9214466 3.8220952 1.5232355L93.1848137 72 89 70.331713l.2228127-.5331518 5.2598153-1.9105581-3.8216966-1.5212911L90.8143892 66 95 67.6678981z"/>
    <path fill="#fff" d="M93.8904338 73L89 71.0452954l.1608283-.385711-.0116966-.0040859.015874-.0065375.2163872-.5185034 4.9693859-1.8088372-3.6100734-1.4419216L91.1083129 66 96 67.9547046l-.161246.383668.0137852.004086-.0179626.0081718-.2126276.5042027-.1111177.0416764-4.8641165 1.7798272 3.6125798 1.4443731zM96.3258268 59.3933945c-.1304701-.2032645-.2925812-.3757576-.4847708-.5170459-.1941426-.1417217-.4093793-.2457376-.6484443-.3051134-.2734404-.0689105-.5300837-.0819125-.7722737-.0420398-.2441432.0377058-.4625049.121352-.6574288.2544057-.1953146.1321869-.3605507.3072804-.5000053.5300478-.1355483.2188669-.2351587.4776065-.294925.7740519l-.509771 2.4890145 3.5808971.9014714.5351619-2.6147004c.1082043-.5352487.0257815-1.0258571-.2484401-1.4700918m-3.3699574-.3558212c.1675799-.285177.3687539-.5127118.6039126-.6830379.23594-.1724931.5019584-.280843.7988366-.3293838.2968781-.0463738.6136783-.0290378.9523537.0554751.2988313.0749782.5628966.2028311.7957115.3822586.2343775.1768271.4273483.4065289.5808655.6808709.149611.2695747.2441432.5638531.2878937.8772011.0425786.3142147.0296878.6366641-.037891.9686483L96.3207486 64 92 62.9147671l.5835999-2.8539371c.0804696-.3930935.2039084-.7337457.3722695-1.0232567"/>
    <path d="M92.1520221 62.2112107l3.3283449.7029491.5155225-2.1186648c.100744-.4170569.0269774-.7854179-.2246717-1.1298236-.119291-.1562982-.2710393-.2906047-.4501865-.4005632-.1850485-.1142783-.3903302-.1943909-.6074145-.2403378-.2592366-.0522303-.5041414-.0640116-.7321853-.0341657-.2309945.0278823-.4278457.0918939-.6061499.1943909-.1791473.1021043-.3287879.2364108-.4581954.4084173-.1264569.1720065-.2187704.3785714-.274833.6110551l-.4902311 2.0067427zM96.1990635 64L91 62.904342l.6896115-2.836144c.0948426-.3848547.2423756-.7253334.4396484-1.009262v-.0023562c.2010664-.2862848.4472358-.5203394.7321853-.6931313.2836849-.1739701.6116297-.2882484.9728748-.3381224.3523932-.045947.7309207-.0302386 1.1275738.0541938.3523931.0738293.6740151.203816.9555924.3864256.2773621.1759336.5146795.4084173.7031002.6911678.1783042.2701837.2954876.5706061.3494425.8910566.0514258.3165234.0366725.6428645-.0442599.9735255L96.1990635 64zM63 12.6553057c.1889354-.429421.4412453-.7529361.7573259-.9697724.1271453-.0865799.2570631-.153834.3869809-.2048543.1315022-.0475416.2685497-.0869664.409162-.1144092.1414045-.0274427.2875621-.0432899.4412454-.0514068.1548715-.0077303.3152884-.0158472.4828349-.0158472.2637966-.0038652.5133339.0081169.7513845.0239641.2364664.0158472.4606538 0 .6709782-.0398113.3188532-.0587507.5252166-.2164498.6159214-.4765761.0879322-.2446656.0384209-.4893311-.1473458-.7216281-.1857667-.23693527-.4951137-.4298075-.9292294-.57591111-.2942956-.09856196-.5870069-.14571709-.8797181-.13798674-.2938995.00425169-.6032466.06338887-.9304177.16968118l-.1322944-.35095788c.3750982-.11788784.7303918-.18127671 1.0690495-.18900706.3370735-.00811686.6713743.04715514 1.0036946.15344745.274491.09469678.5101652.20910596.7090028.33897583.1980455.13412157.3552936.28022518.4757053.43792432.1192234.15731261.196065.32312861.2281484.49667501.0324795.1696811.0205967.3389758-.0411935.5125222-.1041719.2956858-.278848.4970614-.5232361.6114706-.2443882.1062923-.5838381.1534475-1.0171617.1418519-.2582513-.0123685-.5101652-.0200989-.753365-.0316944-.2428038-.011982-.4796662-.0038652-.7121716.0193259-.3061783.0316944-.5687866.1109305-.7909937.2288183-.2210187.1186609-.4190642.2999376-.5901755.5364863l3.5608579 1.1985907L66.9886361 14 63 12.6553057z" fill="#fff" />
    <path d="M66.8118774 14L62 12.3678735l.1178488-.2671661c.2217084-.5093632.5265044-.8980441.9059098-1.1610486.1479469-.1019559.3060678-.1847691.4692757-.2505202.1623601-.0574282.3221766-.1040366.4862324-.1356638.1657513-.034124.3348941-.051186.513363-.0620058.2047517-.0104037.4188296-.0145651.6435054-.017062.2454477 0 .4824171.0112359.7104842.0258011.2234041.0149812.4366341.0045776.6473207-.0382855.3153939-.0574282.406536-.210154.4497755-.3333333.0635875-.18019146.0267067-.34373703-.1148814-.52226387-.1670231-.2138993-.4582539-.39242614-.8656377-.53017062-.2865676-.09571369-.5621134-.1252601-.8444419-.13358302-.2819045.00374531-.5803418.0590928-.915236.16729088l-.2556217.08489388-.3327745-.89096962.2734262-.08697461C64.3133129 8.08281315 64.7240881 8.00873908 65.111124 8c.3772858.01914274.7711043.05076987 1.1674663.17852684.3132744.10986267.5892441.24178111.8270613.39866833.2369694.16104869.4294276.33957553.5765266.53516438.1543057.20349563.2526543.42238868.295046.64710778.0432395.22888057.0250111.46275487-.0555331.68997087-.1335337.3841032-.3705031.6579276-.7011581.8127341-.3107308.1377445-.706245.2080732-1.2162167.1801914l-.8130721-.034124c-.2356976-.0187266-.4798736-.0083229-.7189625.0191427-.2823285.0299626-.5315915.1019559-.7427019.2147316-.10174.0553475-.1988169.1252601-.2916547.2122347l3.690618 1.2501041L66.8118774 14zM73.2754621 14.422391c.1727332-.3092943.2635517-.6320174.2746814-.9634043.0106845-.3313868-.056539-.6536767-.2043416-.9629711-.1789658-.3716731-.4549827-.658875-.8240441-.8529421-.3699517-.1945002-.7652792-.2564457-1.1859824-.1945002-.346802.0485168-.6575436.1724078-.9357865.3664748-.2769073.1988321-.5008372.450946-.6700088.7515767-.1713976.3136262-.2635517.6363494-.2782429.972068-.014246.3313869.0511967.65411.1967734.967303.1678361.376005.4429626.658875.8204826.8577071.1838628.0970335.3793006.1589791.5836422.1897352.2043416.035088.4086832.035088.6121343.0043319.3485827-.0528486.6606599-.1810715.9384576-.3755718.2773525-.194067.5021728-.4505128.6722348-.7598072m.398889.2118277c-.2065675.3755717-.4816941.6762024-.8231537.9105557-.3419049.2343533-.7234315.3755718-1.1468059.4331854-.2533123.0307562-.5017275.0307562-.741239-.0090969-.2404018-.0394199-.4736807-.1147941-.6993913-.2343533-.2203684-.119126-.4166965-.2651094-.5858682-.437084-.1678361-.1771729-.3107416-.376005-.4242647-.6008282-.1807466-.3716731-.2648873-.7602404-.252422-1.1626696.0115749-.4063279.1215365-.7953284.328104-1.1709001.2070127-.3751386.479023-.6801011.8187019-.9057907.3378981-.2339201.7163084-.3799036 1.1347857-.4370841.2546479-.0311893.5030631-.0268575.7461361.0177606.243073.0394199.4759066.119126.6971654.238252.2203683.1104623.4175869.2564458.5880941.4288536.1691717.1767396.3120772.3755717.4269359.5964962.1838629.3755718.2697843.7641391.2577642 1.1709002-.0111297.401996-.1206461.7909965-.3245425 1.1618032" fill="#fff" />
    <path d="M71.6305558 11.8892402c-.0781694 0-.1579341.0081724-.2392941.0198474-.2680094.0377491-.5053093.1311489-.7250611.283702-.2125729.1529422-.3896505.3533627-.5228575.5895864-.1340047.2482879-.2061917.4981324-.2173588.7623761-.0115659.255682.0394835.5098074.1523506.7538144.1284211.286037.3306246.4985216.6225634.6510746.1344035.0716066.2815694.1214198.438307.1451589.1575352.02802.3122787.025685.4678199.0038917.2644199-.0416408.510494-.1389323.7298469-.2938203.2129717-.1490506.3900494-.3510277.524054-.5954239l.0011965-.0019458c.133207-.2401154.2053941-.4942408.214567-.7522578.0079765-.2599628-.0458647-.5121424-.1583329-.7499228-.1375941-.2840911-.3485717-.5024132-.6269505-.6491287-.2093823-.1113015-.4271399-.1669522-.6608504-.1669522M71.3669335 16c-.1352012 0-.2664141-.0101183-.3916447-.0319116-.2492646-.0416408-.4869634-.1210306-.7067151-.2381696-.22374-.1210306-.4211576-.2677461-.5890623-.440925-.1734882-.1821296-.316267-.3848851-.4259434-.602818-.1798694-.3716535-.26442-.7623761-.2524553-1.1636062.0115659-.3985059.1204447-.7915635.3246423-1.1628278.2073882-.3771018.4813799-.6806512.8167904-.9052.3318212-.2299971.7118999-.3771018 1.1270751-.4343092.26442-.0319116.5144823-.0260741.7521811.0175125.2420858.0396949.4801834.1210306.7027269.2424504.2125729.1070206.4131811.2537362.5890623.4304175.1718929.180573.3142729.3813826.4271399.5973697.1842564.3794368.2708011.7724944.2580388 1.1752812-.0107683.398895-.1196471.7876718-.3210529 1.1546553-.2014059.3677618-.4761952.6732571-.8175881.907535-.3338152.2280512-.7182811.3747668-1.1410339.4327525C71.5990487 15.9918275 71.480997 16 71.3669335 16M75 18.7553712l2.4510115-3.3392625-.7770726-.1630858L76.8599762 15c.1285204.0367743.2610075.0655541.3986513.0819426.1344705.019986.2740976.0283802.4165014.0283802L78 15.3549515 75.3252678 19 75 18.7553712z" fill="#fff" />
    <path d="M75.7957379 19L75 18.4035479l2.5402238-3.4505956-.8358019-.1769646L77.2785296 14l.1845498.0522753c.1236015.0351358.2518913.0638443.3844432.0788413.14065.0218528.2761854.0282801.4155568.0282801h.092488L79 14.644871 75.7957379 19zM83.4142435 20.6720093c.1827116-.1841254.2373286-.4122212.1622793-.6886057-.0738705-.2763845-.2813365-.584569-.6220053-.9288718-.3343819-.3368437-.6385083-.5449172-.9115934-.6206874-.2738709-.0765554-.5013763-.0243407-.6856596.1558589-.1886056.188444-.2502953.4243915-.1842833.7129464.065226.2842363.2636548.5967393.5952861.9331903.3355607.3360585.6451881.5405987.9296681.612443.2856588.0722369.5241662.0082444.7163081-.1762737m-1.3524588 1.6779367c.2074661-.2041476.2644407-.4644359.1740672-.7808647-.0907664-.3164289-.3363465-.6764354-.7343828-1.0772715-.4039302-.4082953-.7654241-.6607318-1.0852676-.76045-.3182718-.0965776-.5760327-.0482888-.7744615.1519329-.1925348.188444-.2412579.4444138-.1461692.773013.0954815.3282066.3406687.6886057.7363474 1.0890492.3980362.4004435.7544221.6524873 1.0691575.7490649.3135567.0961849.5681742.0478961.760709-.1444738m.164244-1.4251076c.2683699.3839546.4125746.7243315.4369361 1.0246642.0227898.3007252-.0722988.552769-.2856588.7647685-.2715133.2685327-.6153255.3486214-1.0310435.2367327-.4145392-.1122812-.8758369-.4208582-1.3807496-.9331903-.5056986-.5127247-.8125755-.9732347-.9186661-1.3893818-.109627-.4169324-.0263262-.7573093.2444013-1.0254494.2121812-.2084662.4699421-.3042585.7736756-.280703.3021618.0243407.6428305.1727403 1.0188628.4487322-.2011793-.2920882-.301376-.5641542-.301376-.824835.0019647-.2563624.0939099-.4762137.279372-.6607318.2554033-.2524364.5760327-.336451.9587447-.2559697.383105.0800887.7846776.3321325 1.2062895.76045.2098237.2080736.3768182.4204657.5013764.6250059.1237724.2080736.2039297.4043694.2444013.5884949.0396858.184518.0361494.3603991-.0098232.5245024-.0455796.1644959-.131238.308577-.256975.432636-.1834975.1801996-.4003938.2681401-.6491174.2642142-.2506881-.0043185-.5269166-.1040368-.8306501-.29994" fill="#fff" />
    <path d="M81.3392302 18.9945206c-.1159051 0-.2125639.0414453-.2998135.1264722-.135579.137154-.1744992.2960988-.1231759.5144342.0585941.2589262.2519118.5554523.5735377.8823146.3271859.3268623.6240056.5276796.8823328.5926248.213847.0546907.3742323.0153818.5145159-.1196358.1265975-.1286086.1582468-.2768716.1039297-.4772617-.0675757-.2529444-.2715857-.5511796-.6064702-.8891509-.3293244-.331135-.6218671-.5336615-.8695019-.6033066-.0628711-.0175181-.1206098-.0264908-.1753546-.0264908m-1.8412228 1.3971761c-.1625237 0-.255761.0675088-.322909.1350176-.0872496.0845996-.1860469.2328627-.089388.566134.0885326.3076351.3353121.6673973.7317845 1.0681774.4016046.4050529.7540245.655861 1.0474226.7451606.3105059.0982723.4623373-.0042727.5487315-.0892996h.0008554c.1026465-.1004087.208287-.2572171.1176158-.5751067-.0859665-.2969534-.3314629-.6520155-.729646-1.0527957-.4033155-.4071893-.7621508-.66227-1.0666689-.758406-.0928096-.0281999-.1710776-.0388816-.2377979-.0388816M81.2057897 24c-.1428498 0-.2916874-.0196545-.4465126-.0610997-.5029682-.137154-1.0508442-.502898-1.6286589-1.089541-.5932116-.6015976-.9443484-1.1373953-1.0722289-1.6385842-.1415667-.5426341-.0248063-1.0220322.3404444-1.3839307.2933982-.2892624.6543719-.4050529 1.0602536-.3853984.1612406.0128181.3280413.0521271.5012574.1174995-.0141139-.0828905-.0213847-.1653538-.0213847-.2486717.0029938-.3571985.1330128-.6644063.3862077-.9169235.3421552-.3379713.7912339-.4665799 1.2976237-.3529258.4713188.0978451.9610284.4029165 1.4558704.9041054.2343764.2332899.431971.4815344.5850855.7323424.1479821.2482445.2497733.4922162.2998135.7255061.0534617.2439717.0479017.4815344-.015397.7058517-.0611602.2226081-.1787761.4229982-.3515645.5930521-.2536225.2503808-.5713992.3965074-.907139.3678803-.0872496-.0021364-.1766377-.0106818-.2673088-.0303363.0675757.1785993.1082066.3507895.1210374.518707.0320771.4076165-.1000804.7626787-.3917677 1.0527957C81.888817 23.8692551 81.5671911 24 81.2057897 24" fill="#fff" />
  </g>
</svg>
