<svg width="218" height="230" xmlns="http://www.w3.org/2000/svg" xmlns:xlink="http://www.w3.org/1999/xlink">
  <defs>
    <path id="a" d="M.0005.141h36.116v36.1172H.0005z"/>
    <path id="c" d="M.4067.141h36.117v36.1172H.4067z"/>
    <path id="e" d="M.5024.7281H36.619v36.117H.5024z"/>
    <path id="g" d="M.0952.8834h36.117V37H.0952z"/>
    <path id="i" d="M.5024.8834H36.619V37H.5024z"/>
  </defs>
  <g fill="none" fill-rule="evenodd">
    <g transform="translate(0 -.141)">
      <mask id="b" fill="#fff">
        <use xlink:href="#a"/>
      </mask>
      <path d="M.0005 18.1992c0-9.974 8.085-18.059 18.058-18.059 9.973 0 18.058 8.085 18.058 18.059s-8.085 18.059-18.058 18.059c-9.973 0-18.058-8.085-18.058-18.059" fill="#EE4223" mask="url(#b)"/>
    </g>
    <path d="M55.0952 79.6461c0-9.974 8.085-18.059 18.059-18.059 9.973 0 18.058 8.085 18.058 18.059 0 9.973-8.085 18.058-18.058 18.058-9.974 0-18.059-8.085-18.059-18.058" fill="#EE4223"/>
    <g transform="translate(126 -.141)">
      <mask id="d" fill="#fff">
        <use xlink:href="#c"/>
      </mask>
      <path d="M.4067 18.1992c0-9.974 8.085-18.059 18.059-18.059 9.973 0 18.058 8.085 18.058 18.059s-8.085 18.059-18.058 18.059c-9.974 0-18.059-8.085-18.059-18.059" fill="#EE4223" mask="url(#d)"/>
    </g>
    <g transform="translate(181 60.859)">
      <mask id="f" fill="#fff">
        <use xlink:href="#e"/>
      </mask>
      <path d="M.5024 18.7871c0-9.974 8.085-18.059 18.059-18.059 9.973 0 18.058 8.085 18.058 18.059 0 9.973-8.085 18.058-18.058 18.058-9.974 0-18.059-8.085-18.059-18.058" fill="#EE4223" mask="url(#f)"/>
    </g>
    <path d="M.0005 150.213c0-9.974 8.085-18.059 18.058-18.059 9.973 0 18.058 8.085 18.058 18.059 0 9.973-8.085 18.058-18.058 18.058-9.973 0-18.058-8.085-18.058-18.058" fill="#EE4223"/>
    <g transform="translate(55 192.859)">
      <mask id="h" fill="#fff">
        <use xlink:href="#g"/>
      </mask>
      <path d="M.0952 18.9414c0-9.973 8.085-18.058 18.059-18.058 9.973 0 18.058 8.085 18.058 18.058 0 9.974-8.085 18.059-18.058 18.059-9.974 0-18.059-8.085-18.059-18.059" fill="#EE4223" mask="url(#h)"/>
    </g>
    <path d="M126.4067 150.213c0-9.974 8.085-18.059 18.059-18.059 9.973 0 18.058 8.085 18.058 18.059 0 9.973-8.085 18.058-18.058 18.058-9.974 0-18.059-8.085-18.059-18.058" fill="#EE4223"/>
    <g transform="translate(181 192.859)">
      <mask id="j" fill="#fff">
        <use xlink:href="#i"/>
      </mask>
      <path d="M.5024 18.9414c0-9.973 8.085-18.058 18.059-18.058 9.973 0 18.058 8.085 18.058 18.058 0 9.974-8.085 18.059-18.058 18.059-9.974 0-18.059-8.085-18.059-18.059" fill="#EE4223" mask="url(#j)"/>
    </g>
  </g>
</svg>
