<svg width="204" height="197" xmlns="http://www.w3.org/2000/svg">
  <g opacity=".70375279">
    <g opacity=".5812407" fill="#EEE1D9" fill-rule="evenodd">
      <path d="M10.4970951.92311414L67.7267176 33.6433955c3.3349121 1.9072642 4.4871463 6.1699346 2.5623778 9.4724695-1.9259624 3.3037173-6.2304229 4.444765-9.565335 2.5375008L3.49533199 12.9330844C.16041992 11.0270027-.99300831 6.76314991.93295416 3.460615 2.8577226.15926253 7.16218303-.98296759 10.4970951.92311414M96.269247.92311414l57.229622 32.72028136c3.334913 1.9072642 4.487147 6.1699346 2.562378 9.4724695-1.925962 3.3037173-6.230423 4.444765-9.565335 2.5375008L89.2674839 12.9330844c-3.3349121-1.9060817-4.4883403-6.16993449-2.5623778-9.4724694C88.6298745.15926253 92.9343349-.98296759 96.269247.92311414M181.276603.92311414l57.227745 32.72028136c3.334872 1.9072642 4.488287 6.1699346 2.563541 9.4724695-1.925939 3.3037173-6.230348 4.444765-9.565221 2.5375008l-57.227745-32.7202814c-3.336066-1.9060817-4.489481-6.16993449-2.563541-9.4724694 1.925939-3.30135247 6.230348-4.44358259 9.565221-2.53750086M10.4970951 52.0828113l57.2296225 32.7202814c3.3349121 1.9060817 4.4871463 6.1699345 2.5623778 9.4724695-1.9259624 3.3025349-6.2304229 4.4435826-9.565335 2.5375008L3.49533199 64.0927816C.16041992 62.1855174-.99300831 57.922847.93295416 54.6203121c1.92476844-3.3025349 6.22922888-4.444765 9.56414094-2.5375008M96.269247 52.0828113l57.229622 32.7202814c3.334913 1.9060817 4.487147 6.1699345 2.562378 9.4724695-1.925962 3.3025349-6.230423 4.4435826-9.565335 2.5375008L89.2674839 64.0927816c-3.3349121-1.9072642-4.4883403-6.1699346-2.5623778-9.4724695 1.9247684-3.3025349 6.2292288-4.444765 9.5641409-2.5375008M181.276603 52.0828113l57.227745 32.7202814c3.334872 1.9060817 4.488287 6.1699345 2.563541 9.4724695-1.925939 3.3025349-6.230348 4.4435826-9.565221 2.5375008l-57.227745-32.7202814c-3.336066-1.9072642-4.489481-6.1699346-2.563541-9.4724695 1.925939-3.3025349 6.230348-4.444765 9.565221-2.5375008M10.4970951 100.186672l57.2296225 32.721183c3.3349121 1.906065 4.4871463 6.168699 2.5623778 9.472388-1.9259624 3.302507-6.2304229 4.443544-9.565335 2.537479L3.49533199 112.196539c-3.33491207-1.906065-4.4883403-6.168699-2.56237783-9.472388 1.92476844-3.3013239 6.22922888-4.4435443 9.56414094-2.537479M96.269247 100.186672l57.229622 32.721183c3.334913 1.906065 4.487147 6.168699 2.562378 9.472388-1.925962 3.302507-6.230423 4.443544-9.565335 2.537479l-57.2284281-32.721183c-3.3349121-1.906065-4.4883403-6.168699-2.5623778-9.472388 1.9247684-3.3013239 6.2292288-4.4435443 9.5641409-2.537479M181.276603 100.186672l57.227745 32.721183c3.334872 1.906065 4.488287 6.168699 2.563541 9.472388-1.925939 3.302507-6.230348 4.443544-9.565221 2.537479l-57.227745-32.721183c-3.336066-1.906065-4.489481-6.168699-2.563541-9.472388 1.925939-3.3013239 6.230348-4.4435443 9.565221-2.537479M10.4970951 151.34561l57.2296225 32.720831c3.3349121 1.906114 4.4871463 6.170039 2.5623778 9.472629-1.9259624 3.30259-6.2304229 4.443657-9.565335 2.537543L3.49533199 163.355782c-3.33491207-1.906113-4.4883403-6.170038-2.56237783-9.472628 1.92476844-3.301408 6.22922888-4.443657 9.56414094-2.537544M96.269247 151.34561l57.229622 32.720831c3.334913 1.906114 4.487147 6.170039 2.562378 9.472629-1.925962 3.30259-6.230423 4.443657-9.565335 2.537543l-57.2284281-32.720831c-3.3349121-1.906113-4.4883403-6.170038-2.5623778-9.472628 1.9247684-3.301408 6.2292288-4.443657 9.5641409-2.537544M181.276603 151.34561l57.227745 32.720831c3.334872 1.906114 4.488287 6.170039 2.563541 9.472629-1.925939 3.30259-6.230348 4.443657-9.565221 2.537543l-57.227745-32.720831c-3.336066-1.906113-4.489481-6.170038-2.563541-9.472628 1.925939-3.301408 6.230348-4.443657 9.565221-2.537544"/>
    </g>
  </g>
</svg>
