<svg width="44" height="44" xmlns="http://www.w3.org/2000/svg">
  <path d="M21.834 34.009c-8.591-.706-12.135-7.64-13.316-10.823 9.276.854 12.382 7.719 13.316 10.823zM19.068 7.54a4.866 4.866 0 014.857-4.86c2.68 0 4.86 2.181 4.86 4.86a4.865 4.865 0 01-4.86 4.857 4.865 4.865 0 01-4.857-4.857zm17.106 9.005c-.706 8.58-7.64 12.135-10.822 13.32.853-9.27 7.718-12.383 10.822-13.32zm1.199-3.028c-.086.013-7.878 1.271-12.108 8.091v-6.655a7.518 7.518 0 006.197-7.413c0-4.157-3.383-7.54-7.537-7.54s-7.536 3.383-7.536 7.54a7.52 7.52 0 006.2 7.413v14.23c-2.291-3.951-6.921-8.712-15.907-8.759L5 20.413l.369 1.657c.141.585 3.589 14.202 17.22 14.66v7.802h2.676V32.707c3.093-1.016 13.796-5.443 13.644-17.885l-.024-1.525-1.512.22z" fill="#fff" fill-rule="evenodd"/>
</svg>
