
<svg width="44" height="44" xmlns="http://www.w3.org/2000/svg">
  <path d="M17.552 28.7243l4.261 4.265 10.561-10.561-4.808-4.813 7.884-8.749c3.565 3.596 5.522 8.333 5.522 13.4 0 10.52-8.556 19.076-19.073 19.076-4.333 0-8.546-1.488-11.929-4.206l7.582-8.412zm1.619-1.794l6.772-7.517 3.014 3.015-7.144 7.144-2.642-2.642zm2.642-11.647l2.422 2.419-6.772 7.516-2.794-2.79 7.144-7.145zm4.041.624l-4.041-4.041-10.561 10.562 4.588 4.588-7.65 8.494c-3.466-3.579-5.367-8.257-5.367-13.244 0-10.517 8.557-19.073 19.076-19.073 4.255 0 8.405 1.44 11.75 4.061l-7.795 8.653zM21.899.7753C10.05.7753.408 10.4163.408 22.2663c0 11.849 9.642 21.491 21.491 21.491 11.85 0 21.491-9.642 21.491-21.491 0-11.85-9.641-21.491-21.491-21.491z" fill="#fff" fill-rule="evenodd"/>
</svg>
